# xmcd
#
# Track frame offsets:
#	150
#	24614
#	47577
#	66444
#	82540
#	103326
#	121523
#	141399
#	161573
#	183079
#	203727
#	223361
#
# Disc length: 3265 seconds
#
# Revision: 1
# Processed by: cddbd v1.5.2PL0 Copyright (c) Steve Scherf et al.
# Submitted via: EasyCDDAExtractor 11.0.2.1
#
DISCID=a50cbf0c
DTITLE=Rose Sirinthip - Rose Show
DYEAR=2008
DGENRE=Pop
TTITLE0=ความรักบังตา
TTITLE1=แค่ใครสักคน
TTITLE2=รูปใบเก่า
TTITLE3=น้ำแข็งในมือ
TTITLE4=คนเดิม
TTITLE5=ไม่ง่ายไม่ยาก
TTITLE6=รักและเข้าใจ
TTITLE7=คนแปลกหน้า
TTITLE8=ความทรงจำครั้งสุดท้าย
TTITLE9=กลัวคำว่าไกล
TTITLE10=เธอทำให้ฉันคิดถึงแต่เธอ feat. ปาล์ม Instinct
TTITLE11=ปีใหม่ใหม่ (Winter Mix)
EXTD=
EXTT0=
EXTT1=
EXTT2=
EXTT3=
EXTT4=
EXTT5=
EXTT6=
EXTT7=
EXTT8=
EXTT9=
EXTT10=
EXTT11=
PLAYORDER=
